<mxfile host="app.diagrams.net" modified="2021-05-31T09:38:57.452Z" agent="5.0 (Macintosh; Intel Mac OS X 10_15_7) AppleWebKit/537.36 (KHTML, like Gecko) Chrome/86.0.4240.193 Safari/537.36" etag="QLYWysjw9li0NcDRfxRJ" version="14.7.3" type="github">
  <diagram id="xtClEjdNkyaen4veVCty" name="Page-1">
    <mxGraphModel dx="946" dy="536" grid="1" gridSize="10" guides="1" tooltips="1" connect="1" arrows="1" fold="1" page="1" pageScale="1" pageWidth="827" pageHeight="1169" math="0" shadow="0">
      <root>
        <mxCell id="0" />
        <mxCell id="1" parent="0" />
        <mxCell id="tn4lzgLGwy1w-GZ7c9Ck-5" value="" style="html=1;align=center;verticalAlign=top;rounded=1;absoluteArcSize=1;arcSize=20;dashed=1;fillColor=#dae8fc;strokeColor=#6c8ebf;" vertex="1" parent="1">
          <mxGeometry x="555" y="130" width="190" height="190" as="geometry" />
        </mxCell>
        <mxCell id="tn4lzgLGwy1w-GZ7c9Ck-6" style="edgeStyle=orthogonalEdgeStyle;rounded=0;orthogonalLoop=1;jettySize=auto;html=1;exitX=1;exitY=0.5;exitDx=0;exitDy=0;entryX=0;entryY=0.5;entryDx=0;entryDy=0;" edge="1" parent="1" source="tn4lzgLGwy1w-GZ7c9Ck-1" target="tn4lzgLGwy1w-GZ7c9Ck-2">
          <mxGeometry relative="1" as="geometry" />
        </mxCell>
        <mxCell id="tn4lzgLGwy1w-GZ7c9Ck-1" value="调用方" style="rounded=1;whiteSpace=wrap;html=1;fillColor=#ffe6cc;strokeColor=#d79b00;" vertex="1" parent="1">
          <mxGeometry x="20" y="195" width="120" height="60" as="geometry" />
        </mxCell>
        <mxCell id="tn4lzgLGwy1w-GZ7c9Ck-7" style="edgeStyle=orthogonalEdgeStyle;rounded=0;orthogonalLoop=1;jettySize=auto;html=1;exitX=1;exitY=0.5;exitDx=0;exitDy=0;entryX=0;entryY=0.5;entryDx=0;entryDy=0;" edge="1" parent="1" source="tn4lzgLGwy1w-GZ7c9Ck-2" target="tn4lzgLGwy1w-GZ7c9Ck-5">
          <mxGeometry relative="1" as="geometry" />
        </mxCell>
        <mxCell id="tn4lzgLGwy1w-GZ7c9Ck-2" value="接口" style="rounded=1;whiteSpace=wrap;html=1;fillColor=#fff2cc;strokeColor=#d6b656;" vertex="1" parent="1">
          <mxGeometry x="250" y="195" width="120" height="60" as="geometry" />
        </mxCell>
        <mxCell id="tn4lzgLGwy1w-GZ7c9Ck-3" value="实现类A" style="rounded=1;whiteSpace=wrap;html=1;fillColor=#f5f5f5;strokeColor=#666666;fontColor=#333333;" vertex="1" parent="1">
          <mxGeometry x="580" y="160" width="140" height="50" as="geometry" />
        </mxCell>
        <mxCell id="tn4lzgLGwy1w-GZ7c9Ck-4" value="实现类B" style="rounded=1;whiteSpace=wrap;html=1;fillColor=#f5f5f5;strokeColor=#666666;fontColor=#333333;" vertex="1" parent="1">
          <mxGeometry x="580" y="240" width="140" height="50" as="geometry" />
        </mxCell>
        <mxCell id="tn4lzgLGwy1w-GZ7c9Ck-8" value="调用" style="text;html=1;strokeColor=none;fillColor=none;align=center;verticalAlign=middle;whiteSpace=wrap;rounded=0;" vertex="1" parent="1">
          <mxGeometry x="180" y="190" width="40" height="20" as="geometry" />
        </mxCell>
        <mxCell id="tn4lzgLGwy1w-GZ7c9Ck-9" value="根据配置文件决定实现类" style="text;html=1;strokeColor=none;fillColor=none;align=center;verticalAlign=middle;whiteSpace=wrap;rounded=0;" vertex="1" parent="1">
          <mxGeometry x="380" y="190" width="150" height="20" as="geometry" />
        </mxCell>
      </root>
    </mxGraphModel>
  </diagram>
</mxfile>
